<svg width="117" height="56" viewBox="0 0 117 56" fill="none" xmlns="http://www.w3.org/2000/svg">
<path d="M9.29882 39.2222L6.82281 41.8771V46.6851H2.59521V27.6875H6.83362V36.5672L14.9861 27.6875H19.7218L12.0884 36.1544L20.1651 46.6851H15.1915L9.29882 39.2222Z" fill="#006DDC"/>
<path d="M38.9569 27.6875V46.6851H35.4537L26.2741 35.1504V46.6851H22.0681V27.6875H25.5929L34.7509 39.2222V27.6875H38.9569Z" fill="#006DDC"/>
<path d="M95.1589 27.6875L89.1257 46.6851H84.5521L80.4975 33.823L76.3131 46.6851H71.7612L65.7063 27.6875H70.1285L74.2804 41.0405L78.627 27.6875H82.5734L86.7794 41.152L91.0719 27.6875H95.1589Z" fill="#006DDC"/>
<path d="M114.405 27.6875V46.6851H110.902L101.722 35.1504V46.6851H97.5161V27.6875H101.041L110.199 39.2222V27.6875H114.405Z" fill="#006DDC"/>
<path d="M21.9492 2.67725V21.6749H20.0786V6.47008L12.8452 19.2541H11.9262L4.69279 6.55932V21.6749H2.82227V2.67725H4.42248L12.4236 16.7665L20.3381 2.67725H21.9492Z" fill="#006DDC"/>
<path d="M39.5082 16.5992H29.2474L27.0417 21.6749H25.0198L33.4425 2.67725H35.3671L43.7899 21.6749H41.7355L39.5082 16.5992ZM38.7946 14.9705L34.3724 4.7633L29.9502 14.9705H38.7946Z" fill="#006DDC"/>
<path d="M52.5263 12.7394L48.7636 16.6772V21.6749H46.8174V2.67725H48.7636V14.1561L59.5758 2.67725H61.814L53.8454 11.278L62.3654 21.6749H60.0516L52.5263 12.7394Z" fill="#006DDC"/>
<path d="M78.5512 19.9346V21.6749H65.5225V2.67725H78.1512V4.40633H67.4687V11.1665H76.9943V12.8844H67.4687V19.9458H78.5512V19.9346Z" fill="#006DDC"/>
<path d="M57.9108 36.768C55.8024 36.768 54.0941 35.0054 54.0941 32.8301C54.0941 31.603 54.6455 30.454 55.5862 29.7066C54.9699 29.5393 54.3428 29.4612 53.7048 29.4612C49.5313 29.4501 46.1471 32.9417 46.1363 37.2477C46.1254 41.5536 49.5097 45.0453 53.6832 45.0564C57.8568 45.0676 61.241 41.5759 61.2518 37.27C61.2518 37.2588 61.2518 37.2588 61.2518 37.2477C61.2518 36.5449 61.1545 35.8532 60.9815 35.1728C60.2571 36.1767 59.1218 36.768 57.9108 36.768Z" fill="#F79237"/>
<path d="M63.9006 53.3226C65.4592 53.3226 66.7226 52.0191 66.7226 50.4111C66.7226 48.8031 65.4592 47.4995 63.9006 47.4995C62.3421 47.4995 61.0786 48.8031 61.0786 50.4111C61.0786 52.0191 62.3421 53.3226 63.9006 53.3226Z" fill="#006DDC"/>
<path d="M53.7047 49.2509C47.2822 49.2509 42.0815 43.8852 42.0815 37.2589C42.0815 30.6326 47.2822 25.2668 53.6939 25.2668C60.1164 25.2668 65.3171 30.6326 65.3171 37.2589C65.3171 40.4382 64.0953 43.4947 61.9112 45.737C59.7488 47.9903 56.7862 49.2621 53.7047 49.2509ZM53.7047 26.6501C48.0283 26.639 43.4223 31.3911 43.4115 37.2477C43.4006 43.1043 48.0067 47.8565 53.6831 47.8676C59.3595 47.8788 63.9656 43.1266 63.9764 37.27C63.9764 37.2589 63.9764 37.2589 63.9764 37.2477C63.9656 31.4023 59.3704 26.6613 53.7047 26.6501Z" fill="#006DDC"/>
</svg>
