<svg width="100" height="100" viewBox="0 0 100 100" fill="none" xmlns="http://www.w3.org/2000/svg">
<path d="M70.5128 100H29.4872C10.7692 100 0 90.2326 0 73.2558V26.7442C0 9.76744 10.7692 0 29.4872 0H70.5128C89.2308 0 100 9.76744 100 26.7442V73.2558C100 90.2326 89.2308 100 70.5128 100ZM29.4872 6.97674C14.8205 6.97674 7.69231 13.4419 7.69231 26.7442V73.2558C7.69231 86.5581 14.8205 93.0233 29.4872 93.0233H70.5128C85.1795 93.0233 92.3077 86.5581 92.3077 73.2558V26.7442C92.3077 13.4419 85.1795 6.97674 70.5128 6.97674H29.4872Z" fill="white"/>
<path d="M83.3333 37.2093H73.0769C65.2821 37.2093 58.9744 31.4884 58.9744 24.4186V15.1163C58.9744 13.2093 60.718 11.6279 62.8205 11.6279C64.9231 11.6279 66.6667 13.2093 66.6667 15.1163V24.4186C66.6667 27.6279 69.5385 30.2326 73.0769 30.2326H83.3333C85.4359 30.2326 87.1795 31.814 87.1795 33.7209C87.1795 35.6279 85.4359 37.2093 83.3333 37.2093Z" fill="white"/>
<path d="M39.7409 76.7441C38.7665 76.7441 37.7921 76.4185 37.0229 75.7208L26.7665 66.4185C25.2793 65.0696 25.2793 62.8366 26.7665 61.4878L37.0229 52.1855C38.5101 50.8366 40.9719 50.8366 42.4591 52.1855C43.9463 53.5343 43.9463 55.7673 42.4591 57.1162L34.9204 63.9534L42.4591 70.7901C43.9463 72.1389 43.9463 74.372 42.4591 75.7208C41.6898 76.4185 40.7155 76.7441 39.7409 76.7441Z" fill="white"/>
<path d="M60.2535 76.7441C59.2791 76.7441 58.3048 76.4185 57.5356 75.7208C56.0484 74.372 56.0484 72.1389 57.5356 70.7901L65.074 63.9534L57.5356 57.1162C56.0484 55.7673 56.0484 53.5343 57.5356 52.1855C59.0227 50.8366 61.4843 50.8366 62.9714 52.1855L73.2279 61.4878C74.715 62.8366 74.715 65.0696 73.2279 66.4185L62.9714 75.7208C62.2022 76.4185 61.2279 76.7441 60.2535 76.7441Z" fill="white"/>
</svg>
