<svg width="100" height="100" viewBox="0 0 100 100" fill="none" xmlns="http://www.w3.org/2000/svg">
<path d="M26.2364 67.4419C24.9341 67.4419 23.7248 66.7442 23.1202 65.5349C22.2364 63.814 22.9341 61.721 24.7016 60.8373C28.7481 58.8373 32.1899 55.7675 34.6551 52.0466C35.4923 50.7907 35.4923 49.2094 34.6551 47.9535C32.1434 44.2326 28.7016 41.1628 24.7016 39.1629C22.9341 38.3257 22.2364 36.2327 23.1202 34.4653C23.9574 32.7443 26.0504 32.0467 27.7713 32.9304C32.8876 35.4885 37.2597 39.349 40.4225 44.0931C42.7947 47.6745 42.7947 52.3256 40.4225 55.907C37.2597 60.6512 32.8876 64.5117 27.7713 67.0698C27.3062 67.3024 26.7481 67.4419 26.2364 67.4419Z" fill="white"/>
<path d="M73.2556 67.4419H54.651C52.744 67.4419 51.1626 65.8605 51.1626 63.9535C51.1626 62.0465 52.744 60.4651 54.651 60.4651H73.2556C75.1626 60.4651 76.744 62.0465 76.744 63.9535C76.744 65.8605 75.1626 67.4419 73.2556 67.4419Z" fill="white"/>
<path d="M63.9535 100H36.0465C10.7907 100 0 89.2093 0 63.9535V36.0465C0 10.7907 10.7907 0 36.0465 0H63.9535C89.2093 0 100 10.7907 100 36.0465V63.9535C100 89.2093 89.2093 100 63.9535 100ZM36.0465 6.97674C14.6046 6.97674 6.97674 14.6046 6.97674 36.0465V63.9535C6.97674 85.3953 14.6046 93.0233 36.0465 93.0233H63.9535C85.3953 93.0233 93.0233 85.3953 93.0233 63.9535V36.0465C93.0233 14.6046 85.3953 6.97674 63.9535 6.97674H36.0465Z" fill="white"/>
</svg>
